<svg xmlns="http://www.w3.org/2000/svg" xmlns:xlink="http://www.w3.org/1999/xlink" width="500" zoomAndPan="magnify" viewBox="0 0 375 374.999991" height="500" preserveAspectRatio="xMidYMid meet" version="1.0"><defs><g/><clipPath id="id1"><path d="M 122.25 82 L 252.75 82 L 252.75 231.882812 L 122.25 231.882812 Z M 122.25 82 " clip-rule="nonzero"/></clipPath><clipPath id="id2"><path d="M 144.226562 122 L 222 122 L 222 186 L 144.226562 186 Z M 144.226562 122 " clip-rule="nonzero"/></clipPath><clipPath id="id3"><path d="M 220 138 L 230.410156 138 L 230.410156 173.953125 L 220 173.953125 Z M 220 138 " clip-rule="nonzero"/></clipPath><clipPath id="id4"><path d="M 144.226562 133 L 216 133 L 216 193 L 144.226562 193 Z M 144.226562 133 " clip-rule="nonzero"/></clipPath><clipPath id="id5"><path d="M 172 194 L 196 194 L 196 207.265625 L 172 207.265625 Z M 172 194 " clip-rule="nonzero"/></clipPath></defs><rect x="-37.5" width="450" fill="#ffffff" y="-37.499999" height="449.999989" fill-opacity="1"/><rect x="-37.5" width="450" fill="#ffffff" y="-37.499999" height="449.999989" fill-opacity="1"/><rect x="-37.5" width="450" fill="#ffffff" y="-37.499999" height="449.999989" fill-opacity="1"/><rect x="-37.5" width="450" fill="#ffffff" y="-37.499999" height="449.999989" fill-opacity="1"/><g clip-path="url(#id1)"><path fill="#000000" d="M 187.496094 84.941406 L 186.429688 82.285156 L 124.109375 107.289062 C 122.96875 107.746094 122.25 108.875 122.316406 110.101562 C 122.316406 110.148438 123.1875 126.507812 125.710938 145.1875 C 126.972656 154.527344 128.648438 164.445312 130.855469 173.242188 C 131.960938 177.644531 133.199219 181.761719 134.609375 185.410156 C 136.019531 189.0625 137.582031 192.242188 139.445312 194.792969 C 140.578125 196.335938 142.109375 197.960938 143.957031 199.726562 C 147.1875 202.808594 151.394531 206.273438 155.921875 209.777344 C 162.707031 215.035156 170.191406 220.359375 175.996094 224.382812 C 181.792969 228.402344 185.90625 231.117188 185.917969 231.125 C 186.878906 231.761719 188.117188 231.761719 189.074219 231.125 C 189.097656 231.113281 198.632812 224.820312 209.160156 217.183594 C 214.429688 213.367188 219.941406 209.214844 224.664062 205.320312 C 227.027344 203.371094 229.1875 201.488281 231.039062 199.726562 C 232.886719 197.960938 234.414062 196.335938 235.550781 194.792969 C 237.410156 192.242188 238.976562 189.0625 240.386719 185.410156 C 242.847656 179.027344 244.804688 171.1875 246.402344 162.964844 C 248.796875 150.628906 250.359375 137.441406 251.332031 127.3125 C 252.300781 117.1875 252.675781 110.132812 252.679688 110.101562 C 252.742188 108.875 252.023438 107.746094 250.882812 107.289062 L 188.566406 82.285156 C 187.886719 82.007812 187.109375 82.007812 186.429688 82.285156 L 187.496094 84.941406 L 186.429688 87.601562 L 248.75 112.609375 L 249.816406 109.949219 L 246.957031 109.796875 C 246.957031 109.796875 246.953125 109.855469 246.945312 109.976562 C 246.839844 111.847656 245.878906 128.191406 243.367188 146.152344 C 242.113281 155.125 240.472656 164.507812 238.382812 172.636719 C 237.335938 176.699219 236.179688 180.453125 234.921875 183.664062 C 233.664062 186.871094 232.296875 189.539062 230.925781 191.410156 C 230.132812 192.496094 228.789062 193.957031 227.082031 195.582031 C 224.09375 198.429688 219.996094 201.816406 215.5625 205.25 C 208.910156 210.402344 201.484375 215.6875 195.738281 219.675781 C 192.859375 221.667969 190.402344 223.335938 188.664062 224.507812 C 187.796875 225.09375 187.109375 225.554688 186.640625 225.867188 C 186.402344 226.023438 186.222656 226.144531 186.101562 226.226562 C 185.980469 226.304688 185.917969 226.34375 185.917969 226.34375 L 187.496094 228.734375 L 189.074219 226.34375 C 189.074219 226.34375 189.042969 226.320312 188.972656 226.273438 C 187.871094 225.546875 178.355469 219.222656 168.21875 211.835938 C 163.152344 208.144531 157.929688 204.179688 153.550781 200.546875 C 151.359375 198.730469 149.382812 196.992188 147.75 195.429688 C 146.121094 193.867188 144.835938 192.460938 144.066406 191.410156 C 142.652344 189.476562 141.238281 186.699219 139.953125 183.347656 C 137.6875 177.484375 135.769531 169.898438 134.214844 161.871094 C 131.875 149.828125 130.324219 136.78125 129.367188 126.765625 C 128.886719 121.761719 128.554688 117.511719 128.339844 114.515625 C 128.234375 113.019531 128.160156 111.835938 128.109375 111.027344 C 128.085938 110.625 128.066406 110.3125 128.054688 110.105469 C 128.046875 110.003906 128.042969 109.925781 128.039062 109.871094 C 128.039062 109.820312 128.035156 109.796875 128.035156 109.796875 L 125.175781 109.949219 L 126.242188 112.609375 L 188.566406 87.601562 L 187.496094 84.941406 L 186.429688 87.601562 L 187.496094 84.941406 " fill-opacity="1" fill-rule="nonzero"/></g><path fill="#004aad" d="M 153.265625 120.554688 C 152.507812 120.554688 151.753906 120.269531 151.164062 119.707031 C 149.972656 118.550781 149.933594 116.636719 151.085938 115.433594 C 151.367188 115.148438 179.617188 86.480469 215 112.929688 C 216.332031 113.929688 216.597656 115.816406 215.601562 117.152344 C 214.613281 118.488281 212.71875 118.769531 211.386719 117.769531 C 180.21875 94.464844 156.429688 118.589844 155.429688 119.628906 C 154.839844 120.246094 154.046875 120.554688 153.265625 120.554688 " fill-opacity="1" fill-rule="nonzero"/><path fill="#004aad" d="M 149.574219 139.507812 C 148.730469 139.507812 147.882812 139.148438 147.28125 138.441406 C 146.207031 137.171875 146.347656 135.273438 147.617188 134.179688 C 149.691406 132.410156 151.753906 130.34375 153.929688 128.164062 C 167.164062 114.894531 183.636719 98.390625 220.648438 129.472656 C 221.929688 130.550781 222.09375 132.449219 221.03125 133.730469 C 219.957031 135.003906 218.046875 135.167969 216.777344 134.105469 C 183.996094 106.578125 170.878906 119.71875 158.195312 132.4375 C 155.929688 134.707031 153.789062 136.851562 151.535156 138.777344 C 150.972656 139.261719 150.265625 139.507812 149.574219 139.507812 " fill-opacity="1" fill-rule="nonzero"/><g clip-path="url(#id2)"><path fill="#004aad" d="M 218.714844 185.539062 C 217.984375 185.539062 217.253906 185.269531 216.675781 184.746094 C 209.617188 178.226562 210.589844 172.269531 212.949219 157.898438 L 213.5625 154.113281 C 214.230469 149.964844 212.898438 145.769531 209.578125 141.664062 C 203.1875 133.730469 192.015625 129.046875 184.738281 128.675781 C 175.847656 128.238281 170.917969 133.527344 164.011719 140.894531 C 159.976562 145.191406 155.417969 150.070312 149.320312 154.433594 C 147.960938 155.40625 146.078125 155.085938 145.117188 153.738281 C 144.144531 152.378906 144.464844 150.492188 145.808594 149.53125 C 151.421875 145.5 155.597656 141.058594 159.617188 136.761719 C 166.726562 129.191406 173.414062 122.015625 185.058594 122.644531 C 195.308594 123.183594 207.59375 129.585938 214.269531 137.878906 C 218.648438 143.292969 220.457031 149.246094 219.519531 155.074219 L 218.890625 158.871094 C 216.535156 173.269531 216.226562 176.121094 220.761719 180.304688 C 221.980469 181.433594 222.054688 183.332031 220.929688 184.566406 C 220.339844 185.207031 219.53125 185.539062 218.714844 185.539062 " fill-opacity="1" fill-rule="nonzero"/></g><g clip-path="url(#id3)"><path fill="#004aad" d="M 225.335938 173.707031 C 225.027344 173.707031 224.722656 173.667969 224.414062 173.566406 C 222.824219 173.066406 221.953125 171.371094 222.453125 169.78125 C 227.359375 154.265625 221.417969 143.34375 221.351562 143.242188 C 220.53125 141.792969 221.058594 139.945312 222.503906 139.136719 C 223.964844 138.3125 225.796875 138.839844 226.617188 140.289062 C 226.910156 140.828125 233.894531 153.625 228.207031 171.601562 C 227.796875 172.886719 226.605469 173.707031 225.335938 173.707031 " fill-opacity="1" fill-rule="nonzero"/></g><g clip-path="url(#id4)"><path fill="#004aad" d="M 212.269531 192.585938 C 211.746094 192.585938 211.207031 192.445312 210.71875 192.148438 C 196.882812 183.832031 199.664062 174.234375 202.136719 165.765625 C 202.765625 163.621094 203.40625 161.402344 203.777344 159.246094 C 204.480469 155.1875 203.148438 150.492188 200.242188 146.679688 C 197.28125 142.792969 193.15625 140.417969 188.632812 139.996094 C 181.589844 139.339844 176.15625 142.816406 165.433594 154.957031 C 159.492188 161.695312 154.496094 165.609375 148.742188 168.0625 C 147.21875 168.714844 145.4375 167.996094 144.796875 166.46875 C 144.144531 164.929688 144.859375 163.160156 146.386719 162.503906 C 151.265625 160.4375 155.609375 156.972656 160.925781 150.953125 C 171.546875 138.917969 178.898438 133 189.199219 133.976562 C 195.421875 134.578125 201.035156 137.773438 205.03125 143.011719 C 208.9375 148.132812 210.695312 154.585938 209.71875 160.257812 C 209.285156 162.773438 208.59375 165.148438 207.925781 167.457031 C 205.53125 175.644531 203.96875 181.046875 213.820312 186.976562 C 215.253906 187.835938 215.714844 189.683594 214.855469 191.109375 C 214.292969 192.058594 213.292969 192.585938 212.269531 192.585938 " fill-opacity="1" fill-rule="nonzero"/></g><path fill="#004aad" d="M 162.796875 198.886719 C 161.71875 198.886719 160.683594 198.320312 160.132812 197.308594 C 159.351562 195.84375 159.886719 194.007812 161.347656 193.214844 C 172.828125 186.988281 181.859375 179.199219 188.210938 170.074219 C 191.964844 164.671875 193.21875 161.09375 192.527344 157.71875 C 192.257812 156.394531 191.121094 152.03125 187.519531 151.402344 C 185.878906 151.109375 184.277344 152.621094 182.203125 154.753906 C 181.679688 155.304688 181.164062 155.832031 180.667969 156.292969 C 179.898438 157.011719 178.976562 157.871094 177.949219 158.847656 C 171.097656 165.328125 159.644531 176.171875 151.316406 179.753906 C 149.792969 180.40625 148.011719 179.714844 147.359375 178.171875 C 146.691406 176.644531 147.398438 174.875 148.921875 174.207031 C 156.273438 171.039062 167.675781 160.257812 173.8125 154.457031 C 174.851562 153.46875 175.785156 152.585938 176.578125 151.851562 C 177.003906 151.46875 177.425781 151.019531 177.875 150.558594 C 180.167969 148.183594 183.625 144.601562 188.558594 145.460938 C 194.398438 146.476562 197.5 151.839844 198.433594 156.523438 C 199.472656 161.632812 197.894531 166.714844 193.15625 173.527344 C 186.265625 183.433594 176.527344 191.855469 164.21875 198.527344 C 163.769531 198.769531 163.269531 198.886719 162.796875 198.886719 " fill-opacity="1" fill-rule="nonzero"/><path fill="#004aad" d="M 153.265625 192.070312 C 152.023438 192.070312 150.867188 191.316406 150.421875 190.082031 C 149.855469 188.515625 150.664062 186.785156 152.238281 186.21875 C 160.515625 183.21875 180.882812 165.777344 183.984375 157.898438 C 184.585938 156.34375 186.339844 155.585938 187.890625 156.191406 C 189.429688 156.804688 190.195312 158.550781 189.582031 160.105469 C 185.585938 170.292969 163.308594 188.621094 154.289062 191.890625 C 153.945312 192.019531 153.597656 192.070312 153.265625 192.070312 " fill-opacity="1" fill-rule="nonzero"/><path fill="#004aad" d="M 206.261719 203.109375 C 205.929688 203.109375 205.582031 203.058594 205.261719 202.941406 C 202.726562 202.054688 199.074219 200.222656 196.027344 196.550781 C 191.746094 191.40625 191.15625 185.707031 191.171875 182.769531 C 191.183594 181.113281 192.542969 179.765625 194.195312 179.765625 L 194.21875 179.765625 C 195.871094 179.789062 197.21875 181.152344 197.203125 182.820312 C 197.191406 184.511719 197.5 188.890625 200.652344 192.6875 C 202.828125 195.304688 205.441406 196.601562 207.246094 197.242188 C 208.824219 197.796875 209.644531 199.515625 209.09375 201.082031 C 208.667969 202.324219 207.503906 203.109375 206.261719 203.109375 " fill-opacity="1" fill-rule="nonzero"/><g clip-path="url(#id5)"><path fill="#004aad" d="M 192.644531 207.265625 C 191.246094 207.265625 189.992188 206.292969 189.699219 204.878906 C 189.160156 202.375 187.109375 200.453125 184.703125 200.207031 C 181.933594 199.925781 179.320312 201.800781 178.550781 204.597656 C 178.105469 206.203125 176.425781 207.136719 174.835938 206.6875 C 173.234375 206.238281 172.300781 204.570312 172.75 202.96875 C 174.3125 197.371094 179.742188 193.585938 185.34375 194.203125 C 190.375 194.726562 194.5 198.515625 195.589844 203.609375 C 195.9375 205.25 194.898438 206.855469 193.273438 207.203125 L 192.644531 207.265625 " fill-opacity="1" fill-rule="nonzero"/></g><g fill="#000000" fill-opacity="1"><g transform="translate(95.997678, 268.436936)"><g><path d="M 20.09375 0 L 15.609375 0 L 15.609375 -9.171875 L 7.1875 -9.171875 L 7.1875 0 L 2.671875 0 L 2.671875 -21.265625 L 7.1875 -21.265625 L 7.1875 -12.921875 L 15.609375 -12.921875 L 15.609375 -21.265625 L 20.09375 -21.265625 Z M 20.09375 0 "/></g></g></g><g fill="#000000" fill-opacity="1"><g transform="translate(120.57073, 268.436936)"><g><path d="M 16.53125 -4.40625 L 13.96875 -4.40625 L 13.96875 0 L 9.578125 0 L 9.578125 -4.40625 L 0.515625 -4.40625 L 0.515625 -7.53125 L 9.828125 -21.265625 L 13.96875 -21.265625 L 13.96875 -7.890625 L 16.53125 -7.890625 Z M 9.578125 -7.890625 L 9.578125 -11.5 C 9.578125 -12.101562 9.601562 -12.972656 9.65625 -14.109375 C 9.707031 -15.253906 9.742188 -15.921875 9.765625 -16.109375 L 9.65625 -16.109375 C 9.300781 -15.316406 8.867188 -14.539062 8.359375 -13.78125 L 4.46875 -7.890625 Z M 9.578125 -7.890625 "/></g></g></g><g fill="#000000" fill-opacity="1"><g transform="translate(139.356421, 268.436936)"><g><path d="M 11.703125 -17.8125 C 10.003906 -17.8125 8.691406 -17.171875 7.765625 -15.890625 C 6.835938 -14.617188 6.375 -12.847656 6.375 -10.578125 C 6.375 -5.828125 8.148438 -3.453125 11.703125 -3.453125 C 13.203125 -3.453125 15.007812 -3.828125 17.125 -4.578125 L 17.125 -0.796875 C 15.382812 -0.0664062 13.4375 0.296875 11.28125 0.296875 C 8.1875 0.296875 5.820312 -0.640625 4.1875 -2.515625 C 2.550781 -4.398438 1.734375 -7.09375 1.734375 -10.59375 C 1.734375 -12.8125 2.132812 -14.75 2.9375 -16.40625 C 3.738281 -18.070312 4.894531 -19.347656 6.40625 -20.234375 C 7.914062 -21.117188 9.679688 -21.5625 11.703125 -21.5625 C 13.765625 -21.5625 15.84375 -21.0625 17.9375 -20.0625 L 16.46875 -16.40625 C 15.675781 -16.78125 14.878906 -17.109375 14.078125 -17.390625 C 13.273438 -17.671875 12.484375 -17.8125 11.703125 -17.8125 Z M 11.703125 -17.8125 "/></g></g></g><g fill="#000000" fill-opacity="1"><g transform="translate(160.119703, 268.436936)"><g><path d="M 19.78125 0 L 14.65625 0 L 9.09375 -8.953125 L 7.1875 -7.59375 L 7.1875 0 L 2.671875 0 L 2.671875 -21.265625 L 7.1875 -21.265625 L 7.1875 -11.53125 L 8.953125 -14.03125 L 14.71875 -21.265625 L 19.71875 -21.265625 L 12.296875 -11.84375 Z M 19.78125 0 "/></g></g></g><g fill="#000000" fill-opacity="1"><g transform="translate(181.682737, 268.436936)"><g><path d="M 19.984375 -21.265625 L 19.984375 -7.5 C 19.984375 -5.925781 19.628906 -4.546875 18.921875 -3.359375 C 18.222656 -2.179688 17.207031 -1.273438 15.875 -0.640625 C 14.550781 -0.015625 12.984375 0.296875 11.171875 0.296875 C 8.429688 0.296875 6.304688 -0.398438 4.796875 -1.796875 C 3.285156 -3.203125 2.53125 -5.125 2.53125 -7.5625 L 2.53125 -21.265625 L 7.03125 -21.265625 L 7.03125 -8.25 C 7.03125 -6.601562 7.359375 -5.394531 8.015625 -4.625 C 8.671875 -3.863281 9.757812 -3.484375 11.28125 -3.484375 C 12.757812 -3.484375 13.828125 -3.867188 14.484375 -4.640625 C 15.148438 -5.410156 15.484375 -6.625 15.484375 -8.28125 L 15.484375 -21.265625 Z M 19.984375 -21.265625 "/></g></g></g><g fill="#000000" fill-opacity="1"><g transform="translate(205.979497, 268.436936)"><g><path d="M 15.21875 -5.90625 C 15.21875 -3.988281 14.523438 -2.472656 13.140625 -1.359375 C 11.765625 -0.253906 9.847656 0.296875 7.390625 0.296875 C 5.117188 0.296875 3.109375 -0.128906 1.359375 -0.984375 L 1.359375 -5.171875 C 2.796875 -4.535156 4.007812 -4.085938 5 -3.828125 C 6 -3.566406 6.910156 -3.4375 7.734375 -3.4375 C 8.722656 -3.4375 9.476562 -3.625 10 -4 C 10.53125 -4.375 10.796875 -4.9375 10.796875 -5.6875 C 10.796875 -6.101562 10.679688 -6.472656 10.453125 -6.796875 C 10.222656 -7.117188 9.878906 -7.429688 9.421875 -7.734375 C 8.972656 -8.035156 8.054688 -8.515625 6.671875 -9.171875 C 5.367188 -9.785156 4.394531 -10.375 3.75 -10.9375 C 3.101562 -11.5 2.582031 -12.148438 2.1875 -12.890625 C 1.800781 -13.640625 1.609375 -14.515625 1.609375 -15.515625 C 1.609375 -17.398438 2.242188 -18.878906 3.515625 -19.953125 C 4.796875 -21.023438 6.5625 -21.5625 8.8125 -21.5625 C 9.914062 -21.5625 10.96875 -21.429688 11.96875 -21.171875 C 12.976562 -20.910156 14.03125 -20.539062 15.125 -20.0625 L 13.671875 -16.5625 C 12.535156 -17.03125 11.597656 -17.351562 10.859375 -17.53125 C 10.117188 -17.71875 9.390625 -17.8125 8.671875 -17.8125 C 7.816406 -17.8125 7.160156 -17.613281 6.703125 -17.21875 C 6.242188 -16.820312 6.015625 -16.300781 6.015625 -15.65625 C 6.015625 -15.257812 6.109375 -14.910156 6.296875 -14.609375 C 6.484375 -14.316406 6.773438 -14.03125 7.171875 -13.75 C 7.578125 -13.476562 8.53125 -12.984375 10.03125 -12.265625 C 12.019531 -11.316406 13.378906 -10.363281 14.109375 -9.40625 C 14.847656 -8.457031 15.21875 -7.289062 15.21875 -5.90625 Z M 15.21875 -5.90625 "/></g></g></g><g fill="#000000" fill-opacity="1"><g transform="translate(224.168991, 268.436936)"><g><path d="M 16.53125 -4.40625 L 13.96875 -4.40625 L 13.96875 0 L 9.578125 0 L 9.578125 -4.40625 L 0.515625 -4.40625 L 0.515625 -7.53125 L 9.828125 -21.265625 L 13.96875 -21.265625 L 13.96875 -7.890625 L 16.53125 -7.890625 Z M 9.578125 -7.890625 L 9.578125 -11.5 C 9.578125 -12.101562 9.601562 -12.972656 9.65625 -14.109375 C 9.707031 -15.253906 9.742188 -15.921875 9.765625 -16.109375 L 9.65625 -16.109375 C 9.300781 -15.316406 8.867188 -14.539062 8.359375 -13.78125 L 4.46875 -7.890625 Z M 9.578125 -7.890625 "/></g></g></g><g fill="#000000" fill-opacity="1"><g transform="translate(242.954678, 268.436936)"><g><path d="M 10.875 0 L 6.375 0 L 6.375 -17.515625 L 0.59375 -17.515625 L 0.59375 -21.265625 L 16.65625 -21.265625 L 16.65625 -17.515625 L 10.875 -17.515625 Z M 10.875 0 "/></g></g></g><g fill="#000000" fill-opacity="1"><g transform="translate(261.987556, 268.436936)"><g><path d="M 12.296875 0 L 7.8125 0 L 7.8125 -12.296875 L 7.859375 -14.328125 L 7.921875 -16.53125 C 7.179688 -15.789062 6.664062 -15.300781 6.375 -15.0625 L 3.921875 -13.109375 L 1.765625 -15.8125 L 8.609375 -21.265625 L 12.296875 -21.265625 Z M 12.296875 0 "/></g></g></g><g fill="#004aad" fill-opacity="1"><g transform="translate(167.791553, 300.090038)"><g><path d="M 5.71875 -8.703125 C 4.882812 -8.703125 4.238281 -8.390625 3.78125 -7.765625 C 3.332031 -7.140625 3.109375 -6.269531 3.109375 -5.15625 C 3.109375 -2.84375 3.976562 -1.6875 5.71875 -1.6875 C 6.445312 -1.6875 7.332031 -1.867188 8.375 -2.234375 L 8.375 -0.390625 C 7.519531 -0.0351562 6.566406 0.140625 5.515625 0.140625 C 4.003906 0.140625 2.847656 -0.316406 2.046875 -1.234375 C 1.242188 -2.148438 0.84375 -3.460938 0.84375 -5.171875 C 0.84375 -6.253906 1.039062 -7.203125 1.4375 -8.015625 C 1.832031 -8.828125 2.394531 -9.445312 3.125 -9.875 C 3.863281 -10.3125 4.726562 -10.53125 5.71875 -10.53125 C 6.726562 -10.53125 7.742188 -10.285156 8.765625 -9.796875 L 8.046875 -8.015625 C 7.660156 -8.203125 7.269531 -8.363281 6.875 -8.5 C 6.476562 -8.632812 6.09375 -8.703125 5.71875 -8.703125 Z M 5.71875 -8.703125 "/></g></g></g><g fill="#004aad" fill-opacity="1"><g transform="translate(183.927137, 300.090038)"><g><path d="M 5.3125 0 L 3.109375 0 L 3.109375 -8.546875 L 0.296875 -8.546875 L 0.296875 -10.390625 L 8.140625 -10.390625 L 8.140625 -8.546875 L 5.3125 -8.546875 Z M 5.3125 0 "/></g></g></g><g fill="#004aad" fill-opacity="1"><g transform="translate(199.21769, 300.090038)"><g><path d="M 3.46875 0 L 1.3125 0 L 1.3125 -10.390625 L 7.265625 -10.390625 L 7.265625 -8.578125 L 3.46875 -8.578125 L 3.46875 -5.90625 L 7 -5.90625 L 7 -4.109375 L 3.46875 -4.109375 Z M 3.46875 0 "/></g></g></g></svg>