<?xml version="1.0" standalone="no"?>
<!DOCTYPE svg PUBLIC "-//W3C//DTD SVG 20010904//EN"
 "http://www.w3.org/TR/2001/REC-SVG-20010904/DTD/svg10.dtd">
<svg version="1.0" xmlns="http://www.w3.org/2000/svg"
 width="2400.000000pt" height="2400.000000pt" viewBox="0 0 2400.000000 2400.000000"
 preserveAspectRatio="xMidYMid meet">

<g transform="translate(0.000000,2400.000000) scale(0.100000,-0.100000)"
fill="#000000" stroke="none">
<path d="M10445 16975 c2487 -284 4570 -710 6400 -1312 1640 -539 2886 -1160
3735 -1863 158 -130 440 -413 550 -550 256 -321 417 -652 471 -973 18 -105 21
-148 16 -307 -8 -264 -51 -434 -172 -685 -554 -1147 -2433 -2225 -5468 -3135
-1881 -564 -3179 -802 -4797 -880 -249 -12 -935 -26 -1885 -40 -390 -6 -825
-15 -965 -20 -478 -19 -1164 -60 -1175 -72 -3 -3 66 -10 153 -16 86 -7 216
-16 287 -22 361 -27 906 -57 1460 -81 399 -17 1744 -23 2205 -10 1175 33 2199
114 3240 257 2458 337 4568 995 6058 1891 1352 812 2116 1760 2223 2758 14
134 6 392 -16 525 -185 1109 -1222 2101 -3008 2876 -2187 950 -5457 1533
-9402 1678 -115 4 -111 4 90 -19z"/>
<path d="M4823 14539 c-920 -58 -1656 -344 -2167 -839 -403 -391 -641 -884
-706 -1467 -14 -124 -14 -438 0 -571 55 -520 260 -1023 590 -1452 40 -52 134
-156 209 -230 370 -369 803 -592 1316 -680 213 -36 417 -41 1684 -38 l1213 3
279 894 c154 491 279 895 279 897 0 2 -602 4 -1337 4 -914 0 -1367 4 -1428 11
-240 30 -443 132 -575 292 -62 75 -133 217 -157 312 -27 111 -22 287 11 398
44 147 96 236 205 351 141 147 320 241 569 298 l97 22 1958 3 c1349 2 1957 0
1957 -7 0 -9 -1061 -3425 -1076 -3464 -6 -15 78 -16 894 -16 l900 0 29 93 c16
50 265 836 553 1745 l523 1652 389 0 c213 0 388 -2 388 -5 0 -2 -238 -785
-530 -1739 -291 -954 -530 -1737 -530 -1740 0 -3 390 -6 868 -6 l867 0 310
930 310 930 892 0 893 0 5 23 c3 12 72 258 154 547 l147 525 -868 3 c-635 1
-868 5 -868 13 0 10 59 214 126 437 l25 82 872 0 872 0 288 893 c158 490 287
895 287 900 0 9 -10560 6 -10717 -4z"/>
</g>
</svg>
