<?xml version="1.0" encoding="UTF-8" standalone="no"?>
<!-- Generator: Adobe Illustrator 18.0.0, SVG Export Plug-In . SVG Version: 6.00 Build 0)  -->

<svg
   version="1.1"
   id="Capa_1"
   x="0px"
   y="0px"
   viewBox="0 0 330 330"
   style="enable-background:new 0 0 330 330;"
   xml:space="preserve"
   sodipodi:docname="logout.svg"
   inkscape:version="1.1.2 (0a00cf5339, 2022-02-04, custom)"
   xmlns:inkscape="http://www.inkscape.org/namespaces/inkscape"
   xmlns:sodipodi="http://sodipodi.sourceforge.net/DTD/sodipodi-0.dtd"
   xmlns="http://www.w3.org/2000/svg"
   xmlns:svg="http://www.w3.org/2000/svg"><defs
   id="defs121" /><sodipodi:namedview
   id="namedview119"
   pagecolor="#ffffff"
   bordercolor="#666666"
   borderopacity="1.0"
   inkscape:pageshadow="2"
   inkscape:pageopacity="0.0"
   inkscape:pagecheckerboard="0"
   showgrid="false"
   inkscape:zoom="2.4454545"
   inkscape:cx="164.79554"
   inkscape:cy="165"
   inkscape:window-width="1920"
   inkscape:window-height="1020"
   inkscape:window-x="1920"
   inkscape:window-y="32"
   inkscape:window-maximized="1"
   inkscape:current-layer="g86" />
<g
   id="g86">
	<path
   d="m 85.0025,180.0015 h 183.785 l -44.392,44.392 c -5.858,5.858 -5.858,15.355 0,21.213 5.857,5.858 15.355,5.858 21.213,0 l 69.998,-69.998 c 5.858,-5.857 5.858,-15.355 0,-21.213 l -69.998,-70.002 c -2.929,-2.929 -6.767,-4.394 -10.606,-4.394 -3.838,0.001 -7.678,1.465 -10.606,4.393 -5.857,5.858 -5.858,15.355 0,21.213 l 44.394,44.396 H 85.0025 c -8.284,0 -15,6.716 -15,15 0,8.284 6.716,15 15,15 z"
   id="path82" />
	<path
   d="M155,300H40V30h115c8.284,0,15-6.716,15-15s-6.716-15-15-15H25c-8.284,0-15,6.716-15,15v300c0,8.284,6.716,15,15,15h130   c8.284,0,15-6.716,15-15S163.284,300,155,300z"
   id="path84" />
</g>
<g
   id="g88">
</g>
<g
   id="g90">
</g>
<g
   id="g92">
</g>
<g
   id="g94">
</g>
<g
   id="g96">
</g>
<g
   id="g98">
</g>
<g
   id="g100">
</g>
<g
   id="g102">
</g>
<g
   id="g104">
</g>
<g
   id="g106">
</g>
<g
   id="g108">
</g>
<g
   id="g110">
</g>
<g
   id="g112">
</g>
<g
   id="g114">
</g>
<g
   id="g116">
</g>
</svg>
